<?xml version="1.0" encoding="UTF-8"?>
<!DOCTYPE svg PUBLIC "-//W3C//DTD SVG 1.1 Tiny//EN" "http://www.w3.org/Graphics/SVG/1.1/DTD/svg11-tiny.dtd">
<svg xmlns="http://www.w3.org/2000/svg" xmlns:xlink="http://www.w3.org/1999/xlink" baseProfile="tiny" height="16" version="1.1" viewBox="12 12 16 16" width="16">
<path d="M11.939,15.441" fill="none" stroke="#FFFFFF" stroke-width="0.2993"/>
<rect fill="none" height="16.102" width="16.102" x="12.071" y="11.967"/>
<g>
<g>
<path d="M24.105,22.604l2.429,0.193l0.483-1.967l-2.206-0.939c-0.023-0.507-0.125-0.994-0.296-1.448l1.644-1.785    l-1.249-1.592l-2.111,1.161c-0.395-0.277-0.835-0.498-1.308-0.645l-0.394-2.416h-2.024l-0.394,2.417    c-0.369,0.114-0.714,0.275-1.037,0.471l-2.115-1.329l-1.336,1.519l1.574,1.925c-0.184,0.411-0.311,0.854-0.371,1.317l-2.377,0.854    l0.369,1.99l2.49-0.053c0.213,0.41,0.482,0.785,0.801,1.113l-0.792,2.389l1.792,0.938l1.477-1.965    c0.302,0.061,0.613,0.092,0.932,0.092c0.164,0,0.324-0.008,0.483-0.023l1.368,2.059l1.843-0.832l-0.626-2.334    C23.525,23.395,23.848,23.021,24.105,22.604z M20.04,21.684c-0.896,0-1.624-0.729-1.624-1.625c0-0.897,0.728-1.625,1.624-1.625    c0.898,0,1.625,0.728,1.625,1.625C21.665,20.955,20.938,21.684,20.04,21.684z" fill="#8AD0C3"/>
<g>
<path d="M21.097,13.167h-2.023l-0.394,2.416c-0.369,0.114-0.714,0.275-1.037,0.472l-2.115-1.329l-1.336,1.519     l1.574,1.924l0,0l0,0c-0.183,0.412-0.31,0.854-0.371,1.318l-2.377,0.854l0.369,1.99l2.49-0.053     c0.213,0.409,0.483,0.784,0.801,1.112l0,0l0,0l-0.792,2.39l1.792,0.937l1.477-1.965c0.302,0.061,0.613,0.092,0.931,0.092     c0.165,0,0.325-0.008,0.484-0.022l1.368,2.058l1.843-0.832l-0.626-2.334l0,0l0,0c0.371-0.318,0.692-0.69,0.951-1.109l2.429,0.193     l0.482-1.966l-2.206-0.939c-0.022-0.508-0.125-0.994-0.296-1.448l0,0l0,0l1.645-1.785l-1.249-1.593l-2.112,1.162     c-0.394-0.278-0.835-0.499-1.307-0.645L21.097,13.167L21.097,13.167z M19.54,13.716h1.09l0.319,1.955l0.055,0.336l0.325,0.101     c0.409,0.126,0.796,0.318,1.152,0.569l0.28,0.198l0.301-0.166l1.703-0.937l0.673,0.858l-1.327,1.441l-0.229,0.249l0.119,0.317     c0.153,0.407,0.241,0.837,0.261,1.279l0.017,0.345l0.317,0.135l1.777,0.756l-0.261,1.059l-1.963-0.156l-0.335-0.025l-0.177,0.285     c-0.226,0.365-0.509,0.695-0.841,0.98l-0.263,0.226l0.089,0.334l0.505,1.883l-0.992,0.448l-1.109-1.67l-0.182-0.273l-0.328,0.031     c-0.146,0.014-0.288,0.021-0.432,0.021c-0.279,0-0.556-0.028-0.822-0.081l-0.34-0.069l-0.208,0.277l-1.196,1.592l-0.965-0.505     l0.645-1.944l0.105-0.316l-0.232-0.239c-0.281-0.291-0.519-0.622-0.708-0.983l-0.157-0.304l-0.342,0.007l-2.023,0.044     L13.642,20.7l1.938-0.696l0.315-0.113l0.044-0.332c0.053-0.403,0.163-0.796,0.328-1.167l0.137-0.309l-0.214-0.262l-1.279-1.563     l0.72-0.818l1.719,1.081l0.288,0.181l0.29-0.177c0.296-0.18,0.603-0.32,0.913-0.416l0.325-0.101l0.055-0.336L19.54,13.716     L19.54,13.716z M20.04,17.886c-1.198,0-2.173,0.975-2.173,2.174c0,1.198,0.975,2.173,2.173,2.173     c1.199,0,2.174-0.976,2.174-2.173C22.214,18.861,21.239,17.886,20.04,17.886L20.04,17.886z M18.416,20.06     c0-0.898,0.727-1.625,1.624-1.625c0.897,0,1.625,0.727,1.625,1.625l0,0l0,0c0,0.896-0.728,1.624-1.625,1.624     C19.143,21.684,18.416,20.956,18.416,20.06L18.416,20.06L18.416,20.06z" fill="#FFFFFF"/>
</g>
<path d="M24.105,22.604l2.429,0.193l0.483-1.967l-2.206-0.939    c-0.023-0.507-0.125-0.994-0.296-1.448l1.644-1.785l-1.249-1.592l-2.111,1.161c-0.395-0.277-0.835-0.498-1.308-0.645l-0.394-2.416    h-2.024l-0.394,2.417c-0.369,0.114-0.714,0.275-1.037,0.471l-2.115-1.329l-1.336,1.519l1.574,1.925    c-0.184,0.411-0.311,0.854-0.371,1.317l-2.377,0.854l0.369,1.99l2.49-0.053c0.213,0.41,0.482,0.785,0.801,1.113l-0.792,2.389    l1.792,0.938l1.477-1.965c0.302,0.061,0.613,0.092,0.932,0.092c0.164,0,0.324-0.008,0.483-0.023l1.368,2.059l1.843-0.832    l-0.626-2.334C23.525,23.395,23.848,23.021,24.105,22.604z M20.04,21.684c-0.896,0-1.624-0.729-1.624-1.625    c0-0.897,0.728-1.625,1.624-1.625c0.898,0,1.625,0.728,1.625,1.625C21.665,20.955,20.938,21.684,20.04,21.684z" fill="none" stroke="#1E3473" stroke-width="0.4463"/>
</g>
</g>
</svg>
